<?xml version="1.0" encoding="utf-8"?>
<!-- Generator: Adobe Illustrator 22.0.0, SVG Export Plug-In . SVG Version: 6.00 Build 0)  -->
<svg version="1.1" id="Capa_1" xmlns="http://www.w3.org/2000/svg" xmlns:xlink="http://www.w3.org/1999/xlink" x="0px" y="0px"
	 viewBox="0 0 712.9 253" style="enable-background:new 0 0 712.9 253;" xml:space="preserve">
<style type="text/css">
	.st0{fill:#2DEF34;}
</style>
<title>OdiseaBlack</title>
<g>
	<path class="st0" d="M325,82.8c12.5,0,22.4-4.8,23.8-19.7c1.2-14.9-8.7-19.5-20.9-19.5c-13.2,0-24.1,5-24.1,22.1
		C303.9,78.5,313.5,82.8,325,82.8z"/>
	<path class="st0" d="M661.7,147.1c-4.8,7.7-10.8,12.3-19,12.3c-10.6,0-13.2-9.6-5.1-27.2c5.3-14,11.5-21.4,11.5-30.6
		c0-5.3-2.2-8.9-8.4-8.9c-11.3,0-13,9.1-20.9,9.1c-6.3,0-5.3-9.1-24.5-9.1c-30.4,0-49.7,27.3-57.7,55.1
		c-10.9,16.1-30.1,24.3-46.2,24.3c-13.7,0-25-4.3-25-12.8c0-3.1,2.4-3.9,4.1-2.9c5.5,3.1,12,3.9,18.8,3.9
		c23.6,0,38.7-19.7,38.7-37.3c0-15.9-9.9-30.3-32.2-30.3c-32.2,0-53.8,26.2-60.7,54.1c-0.1,0.1-0.1,0.1-0.2,0.2
		c-4.8,7.2-9.9,12.5-17.1,12.8c-3.1-14.9-15.9-34.2-15.9-38.7c0-9.6,17.6-10.3,17.3-18c0.2-7.7-7-16.4-21.9-16.4
		c-20.7,0-37.8,35.8-54.9,58.9l-1,1.4c-0.4,0.6-0.8,1.3-1.1,2c-4.3,6.1-8.7,10-15.2,10s-10.8-4.1-10.8-12c0-13,10.8-28.9,10.8-43.6
		c0-7.7-3.1-10.8-8.2-10.8c-13.7,0-23.6,19.5-34.6,54.4l0,0c-4.8,7.7-10.8,12.2-19,12.2c-10.6,0-13.2-9.6-5-27.2l27.2-69.5
		c6.3-13.7,2.9-22.6-5.5-22.6c-7.2,0-16.1,4.1-25.3,26.2c-10.4,24.8-10.4,38-14.2,38c-6.3,0-5.3-11.6-24.5-11.6
		c-29.9,0-49,26.4-57.3,54.4c-5.8,8.4-12.3,11.7-19.2,11.7h-1.7c2.4-8,3.6-16.4,3.6-24.8c0-30.3-15.4-41.4-35.1-41.4
		c-38.3,0-66.2,43.8-66.2,79.9c0,25,15.6,40.4,37.3,40.4c18,0,35.1-10.6,47.2-26.9h2.9c9.8,0.1,19.3-3.6,26.5-10.4
		c0,1.1-0.1,2.1-0.1,3.1c0,19.3,8.4,34.2,27.4,34.2c14.7,0,28.6-15.6,38.5-35.1h1c-2.6,20,5.3,35.1,20.7,35.1s26.2-12.4,34.9-27.1
		c0.7,15.4,6.9,27.1,22.1,27.1c16.4,0,28.4-13.1,37.2-27.4c3.9,15,15.9,27.2,38.8,27.2c29.1,0,47.6-19.3,58.9-36.7
		c3.1,20.6,16.1,36.9,41,36.9c21.4,0,41.3-12.1,58.9-35.4c0.3,20.9,8.7,35.4,24.8,35.4c17.1,0,31.5-15.6,41.2-35.1h1
		c-2.9,20,4.1,35.1,20.7,35.1c26.7,0,39.9-37.5,51.7-59.9C674.9,148.5,665.2,141.3,661.7,147.1z M486.7,118.9
		c7.5,0,11.1,4.6,11.1,9.9c0,6-5.5,13.5-14.9,13.5c-7.7,0-11.3-4.6-11.3-9.9C471.5,125.9,477.3,118.9,486.7,118.9z M90.9,163.2
		c-9.1,0-12.5-6-12.5-13c0-10.6,7.9-22.4,19.7-22.4c9.4,0,13.2,5.8,13.2,12.8C111.4,150.7,103,163.2,90.9,163.2z M203.1,163.2
		c-9.1,0-12.5-6-12.5-13c0-10.6,7.9-22.4,19.7-22.4c9.4,0,13.2,5.8,13.2,12.8C223.5,150.7,215.1,163.2,203.1,163.2z M365.7,163.2
		c-7.9,0-13.4-4.3-13.5-9.9l0.2-0.4l0.1-0.2c5.5-6.9,12.8-16.6,18.7-25.3c2.2-3.1,4.1-3.1,5.8,0c3.4,6.5,5.3,12.5,5.3,18.3
		C382.3,155.5,376.3,163.2,365.7,163.2L365.7,163.2z M582,163.2c-7.5,0-12-4.8-12-13c0-10.6,7.9-22.4,20.5-22.4
		c7.7,0,12.5,4.8,12.5,12.8C602.9,150.7,594.5,163.2,582,163.2z"/>
</g>
</svg>
